<svg width="34" height="109" viewBox="0 0 34 109" fill="none" xmlns="http://www.w3.org/2000/svg">
<path d="M32.792 0.295992L29.48 68.984H5.432L2.12 0.295992H32.792ZM17.528 108.152C12.536 108.152 8.504 106.808 5.432 104.12C2.456 101.336 0.968 97.832 0.968 93.608C0.968 89.384 2.456 85.88 5.432 83.096C8.504 80.312 12.536 78.92 17.528 78.92C22.424 78.92 26.36 80.312 29.336 83.096C32.408 85.88 33.944 89.384 33.944 93.608C33.944 97.736 32.408 101.192 29.336 103.976C26.36 106.76 22.424 108.152 17.528 108.152Z" fill="black"/>
</svg>
